<svg width="20" height="20" fill="none" xmlns="http://www.w3.org/2000/svg"><path d="M8.295 1.842a8.325 8.325 0 013.41-.002 3.327 3.327 0 001.628 2.385 3.328 3.328 0 002.881.218 8.325 8.325 0 011.703 2.954A3.327 3.327 0 0016.667 10c0 1.053.488 1.992 1.251 2.603a8.368 8.368 0 01-1.705 2.953 3.329 3.329 0 00-4.508 2.6 8.326 8.326 0 01-3.41.004 3.327 3.327 0 00-3.044-2.825c-.499-.037-1 .038-1.465.22a8.324 8.324 0 01-1.703-2.954 3.327 3.327 0 001.25-2.602 3.327 3.327 0 00-1.251-2.603c.36-1.09.94-2.096 1.705-2.953A3.327 3.327 0 007.753 3.22c.282-.413.467-.883.542-1.378zM10 12.5a2.5 2.5 0 100-5 2.5 2.5 0 000 5z" fill="#94A846"/></svg>