<svg width="20" height="20" viewBox="0 0 20 20" fill="none" xmlns="http://www.w3.org/2000/svg">
<path fill-rule="evenodd" clip-rule="evenodd" d="M9.3128 1.82507C9.73348 1.62462 10.2353 1.61013 10.674 1.80614C12.3604 2.55946 15.5675 4.11939 17.065 4.85193L9.9886 8.27297L2.73001 4.96163L9.3128 1.82507ZM11.001 10.005L18.3011 6.47579C18.3194 7.96711 18.3602 11.9256 18.307 13.9205C18.293 14.4457 17.9746 14.9136 17.484 15.1542C16.3405 15.7149 12.9489 17.3719 11.001 18.2578V10.005ZM9.00102 10.0207L1.68556 6.68345C1.64348 8.86003 1.6827 12.6489 1.69759 13.902C1.70377 14.4218 2.00792 14.9033 2.5057 15.1535C4.27321 16.0419 7.6006 17.5976 9.00102 18.2492V10.0207Z" fill="#94A846"/>
</svg>
