<svg width="20" height="20" viewBox="0 0 20 20" fill="none" xmlns="http://www.w3.org/2000/svg">
<path d="M8.295 1.84167C9.41911 1.60594 10.5798 1.60538 11.7042 1.84C11.7791 2.33441 11.9644 2.80557 12.2465 3.21848C12.5285 3.63139 12.9 3.97542 13.3333 4.225C13.7663 4.47544 14.2502 4.62505 14.7489 4.66271C15.2477 4.70037 15.7485 4.6251 16.2142 4.4425C16.9794 5.29922 17.5591 6.30503 17.9167 7.39667C17.5261 7.70882 17.2109 8.10496 16.9945 8.55566C16.7781 9.00636 16.6661 9.50004 16.6667 10C16.6667 11.0533 17.155 11.9925 17.9183 12.6033C17.5586 13.6941 16.9782 14.6991 16.2133 15.5558C15.7478 15.3734 15.2471 15.2982 14.7485 15.3358C14.2499 15.3735 13.7662 15.523 13.3333 15.7733C12.9004 16.0228 12.5292 16.3666 12.2473 16.7792C11.9654 17.1918 11.78 17.6626 11.705 18.1567C10.581 18.3929 9.42028 18.3941 8.29583 18.16C8.22129 17.6651 8.03609 17.1935 7.75402 16.7801C7.47195 16.3668 7.10028 16.0223 6.66667 15.7725C6.23364 15.5222 5.74975 15.3727 5.25099 15.3352C4.75223 15.2977 4.25143 15.3731 3.78583 15.5558C3.0205 14.6989 2.44084 13.6928 2.08333 12.6008C2.47366 12.2889 2.78872 11.893 3.00511 11.4426C3.22151 10.9922 3.33369 10.4988 3.33333 9.99917C3.33374 9.49907 3.22142 9.00531 3.00472 8.5546C2.78802 8.10389 2.47252 7.70782 2.08167 7.39583C2.44139 6.3051 3.02176 5.30008 3.78667 4.44333C4.25221 4.6258 4.75289 4.701 5.25149 4.66334C5.7501 4.62569 6.23381 4.47615 6.66667 4.22583C7.09962 3.97633 7.47082 3.63252 7.75272 3.21992C8.03461 2.80732 8.21996 2.33653 8.295 1.8425V1.84167ZM10 12.5C10.663 12.5 11.2989 12.2366 11.7678 11.7678C12.2366 11.2989 12.5 10.663 12.5 10C12.5 9.33696 12.2366 8.70107 11.7678 8.23223C11.2989 7.76339 10.663 7.5 10 7.5C9.33696 7.5 8.70107 7.76339 8.23223 8.23223C7.76339 8.70107 7.5 9.33696 7.5 10C7.5 10.663 7.76339 11.2989 8.23223 11.7678C8.70107 12.2366 9.33696 12.5 10 12.5V12.5Z" fill="#94A846"/>
</svg>
